PathFileType	4	(X/Y/Z)	D:\TRACE\v60_Jaco2_6-2-23\JustBodyDRS_Motion1_4-platform.trc
DataRate	CameraRate	NumFrames	NumMarkers	Units	OrigDataRate	OrigDataStartFrame	OrigNumFrames
100.00	100.00	      65	5	mm	100.00	5218	      6956
Frame#	Time	Left_Front			Right_Front			Left_Aft			Right_Aft			Post			
		X1	Y1	Z1	X2	Y2	Z2	X3	Y3	Z3	X4	Y4	Z4	X5	Y5	Z5	

5218	52.170	-847.91986	-14.88949	-643.83478	722.02472	-13.87505	-649.23840	-755.92480	24.03047	490.78281	686.53632	23.63449	500.68192	-61.62948	1272.27209	-1012.83887	
5219	52.180	-848.36218	-15.11283	-643.94580	721.57977	-13.68073	-649.24048	-756.46387	24.10414	490.73279	686.06079	23.67082	500.65665	-62.01626	1272.05017	-1012.94409	
5220	52.190	-848.53217	-15.14319	-643.63190	721.32031	-13.85159	-649.21790	-756.74915	24.14850	490.74008	685.33679	23.76581	500.81180	-62.23332	1271.90125	-1012.88464	
5221	52.200	-848.77936	-15.10257	-643.77118	721.01385	-14.06269	-649.31134	-756.99323	24.20221	490.72635	684.97198	24.01672	500.27386	-62.30505	1271.82361	-1012.90338	
5222	52.210	-849.02820	-15.13649	-643.93158	720.51636	-14.13992	-649.43195	-757.24554	24.24005	490.72617	685.18268	24.08742	500.46811	-62.91230	1271.86316	-1012.81012	
5223	52.220	-849.28387	-15.25433	-644.10815	720.27710	-14.12832	-649.44189	-757.43073	24.34454	490.64609	685.00049	24.24511	500.41641	-63.32147	1271.63403	-1012.83093	
5224	52.230	-849.71094	-15.49567	-644.17291	720.17572	-14.21429	-649.41913	-757.72388	24.52528	490.64240	684.64349	24.29399	500.35730	-63.82507	1271.37756	-1013.05280	
5225	52.240	-849.77985	-15.72817	-644.43085	719.97089	-14.32911	-649.39594	-758.11041	24.49499	490.60187	684.34143	24.31776	500.36679	-64.29572	1271.23315	-1013.61633	
5226	52.250	-850.23724	-15.63549	-644.17566	719.71045	-14.24947	-649.42706	-758.38403	24.60507	490.60556	684.00140	24.26681	500.34116	-64.49990	1271.04260	-1013.95605	
5227	52.260	-850.46643	-15.88518	-644.07837	719.53900	-14.47547	-649.44470	-758.52191	24.73638	490.62198	683.89368	24.42082	500.32364	-64.65133	1270.76648	-1014.25214	
5228	52.270	-850.65454	-15.93733	-644.03241	719.32538	-14.69969	-649.39685	-758.66052	24.95074	490.58905	684.09381	24.79867	500.21262	-64.71729	1270.67346	-1014.52136	
5229	52.280	-850.72461	-15.88351	-644.04333	719.23767	-14.72782	-649.39508	-758.86011	25.10783	490.32062	683.55219	24.56918	500.06375	-64.73177	1270.52673	-1015.43445	
5230	52.290	-850.90582	-15.84820	-644.15857	719.19128	-14.78022	-649.46674	-758.75073	24.84080	490.52490	683.47290	24.58843	500.04849	-64.70479	1270.54382	-1015.72803	
5231	52.300	-851.04980	-16.19373	-644.14093	719.08044	-15.02358	-649.46722	-758.83966	24.82233	490.55530	683.33258	24.51163	500.06003	-64.67493	1270.36096	-1016.03925	
5232	52.310	-851.01294	-16.39588	-644.16125	719.09967	-15.21094	-649.40161	-758.88776	24.88224	490.52322	683.38336	24.63569	500.05817	-64.79601	1270.19812	-1016.22815	
5233	52.320	-850.98523	-16.46799	-644.21460	719.08282	-15.20419	-649.40918	-758.87262	24.96959	490.45786	683.42480	24.79178	500.01407	-64.81937	1270.11707	-1016.37653	
5234	52.330	-851.05560	-16.30830	-644.10547	719.09192	-15.20819	-649.38965	-758.93573	25.07541	490.42728	683.41425	24.89682	499.97882	-64.74697	1270.00598	-1016.36652	
5235	52.340	-851.05450	-16.45324	-644.15765	719.20392	-15.39055	-649.38885	-758.89160	25.08549	490.40805	683.89703	25.41838	499.90335	-64.77492	1269.90430	-1016.39233	
5236	52.350	-851.05066	-16.73668	-644.13562	719.19330	-15.48765	-649.45190	-759.46790	25.93134	489.87064	683.15186	24.98794	500.14969	-64.91920	1269.67505	-1016.32184	
5237	52.360	-851.09039	-16.80018	-644.06763	719.25891	-15.55401	-649.33740	-759.24072	25.51686	490.23346	683.10339	24.94822	500.18152	-64.94549	1269.52673	-1016.27148	
5238	52.370	-851.06714	-16.76617	-644.16315	719.11218	-15.70495	-649.43799	-759.07507	25.37869	490.44019	683.14520	25.03168	500.13248	-64.84335	1269.54053	-1016.12689	
5239	52.380	-851.02161	-16.60003	-644.15381	719.06354	-15.64394	-649.54199	-759.02850	25.34836	490.44611	683.20905	25.09995	500.15149	-64.76722	1269.64111	-1016.03271	
5240	52.390	-851.04449	-16.66885	-644.18054	719.15741	-15.56370	-649.50311	-759.00830	25.42797	490.43430	683.30249	25.19488	500.11566	-64.81562	1269.66211	-1016.02625	
5241	52.400	-850.95447	-16.84118	-644.17523	719.25482	-15.59912	-649.54340	-758.99384	25.41532	490.37338	683.33533	25.24706	499.86090	-64.83715	1269.44861	-1016.06671	
5242	52.410	-850.92487	-17.02968	-644.11304	719.33093	-15.76701	-649.55231	-758.96051	25.43648	490.41797	682.91992	24.69864	500.33505	-64.86625	1269.33875	-1016.07007	
5243	52.420	-850.62750	-17.15380	-644.17334	719.53851	-15.87739	-649.49213	-758.76544	25.43846	490.37067	683.43872	25.17443	499.89911	-64.72204	1269.32629	-1016.04480	
5244	52.430	-850.15051	-17.11909	-644.36298	719.75598	-15.78176	-649.50818	-758.48212	25.53565	490.37875	683.80243	25.22093	499.87848	-64.39785	1269.34705	-1016.20337	
5245	52.440	-849.84033	-17.07023	-644.16852	719.85675	-15.59204	-649.61084	-758.13806	25.56349	490.39841	684.14105	25.25089	499.83380	-63.87899	1269.30383	-1016.55951	
5246	52.450	-849.53564	-17.04843	-644.21484	720.15533	-15.60152	-649.59222	-757.89984	25.61627	490.34863	684.34625	25.31837	499.82776	-63.59097	1269.13062	-1016.75305	
5247	52.460	-849.33521	-17.19580	-644.19434	720.43591	-15.62256	-649.62787	-757.67371	25.59019	490.34946	684.71442	25.26161	499.67538	-63.28495	1268.97815	-1017.30310	
5248	52.470	-849.25238	-17.25195	-644.17767	720.64636	-15.78076	-649.68475	-757.49579	25.64018	490.34259	684.86652	25.16583	499.64795	-62.93497	1268.80688	-1017.40381	
5249	52.480	-849.06757	-17.23660	-644.18829	720.93353	-15.92862	-649.71997	-757.37555	25.69605	490.34137	685.06189	25.13404	499.61752	-62.66813	1268.72668	-1017.49091	
5250	52.490	-848.78381	-17.23165	-644.09259	721.24207	-15.86462	-649.63654	-757.06140	25.87721	490.31125	685.31250	25.18797	499.60318	-62.41544	1268.80798	-1017.54358	
5251	52.500	-848.51923	-17.27459	-644.33197	721.34143	-15.83828	-649.85016	-756.71747	25.94961	490.29346	685.62567	25.20959	499.52502	-62.22219	1268.84998	-1017.72223	
5252	52.510	-848.13251	-17.20598	-644.11792	721.74292	-16.05042	-649.80170	-756.43622	25.86238	490.35806	686.08368	25.18262	499.50867	-61.92233	1268.81079	-1017.70660	
5253	52.520	-847.85779	-17.30199	-644.36743	722.05664	-15.96813	-649.71307	-756.09845	25.72055	490.31360	686.42224	25.14717	499.51651	-61.70378	1268.72888	-1017.53949	
5254	52.530	-847.34814	-16.97223	-644.20050	722.52734	-15.94645	-649.68665	-755.80353	25.72941	490.29541	686.66815	25.09425	499.49939	-61.31196	1268.73181	-1017.43475	
5255	52.540	-846.92419	-16.90072	-644.29193	723.06525	-16.12440	-649.64783	-755.37427	25.88978	490.37332	686.96161	25.04815	499.49268	-60.88580	1268.78479	-1017.44385	
5256	52.550	-846.38574	-17.20147	-644.22992	723.65155	-16.09092	-649.46472	-754.62506	25.51802	490.15167	687.13116	25.23694	499.54117	-60.70629	1268.91052	-1017.20117	
5257	52.560	-845.92853	-17.24444	-644.18768	723.86469	-16.01246	-649.62701	-754.27997	25.66460	490.10095	687.45465	25.27514	499.50079	-59.97301	1268.73425	-1016.76190	
5258	52.570	-845.63373	-17.23472	-644.39545	724.07434	-16.11524	-649.73615	-753.83020	25.67061	490.00970	688.32990	25.06765	499.46036	-59.22248	1268.70776	-1016.46295	
5259	52.580	-845.17163	-17.16113	-644.23163	724.58905	-16.25740	-649.77789	-753.02484	25.27928	490.04691	688.38690	24.50864	499.09827	-58.86668	1268.69775	-1016.60199	
5260	52.590	-844.81793	-17.19955	-644.10822	725.17841	-16.13069	-649.82843	-751.95398	24.59617	490.14847	689.46313	25.15969	499.31873	-58.53236	1268.77869	-1016.90247	
5261	52.600	-844.43201	-17.10964	-644.19550	725.53790	-15.92975	-649.98975	-751.77521	25.02953	490.07303	689.71045	25.03055	499.29788	-58.24015	1268.95239	-1017.05865	
5262	52.610	-843.70905	-16.99997	-644.25195	725.88678	-15.94168	-649.95959	-751.57275	24.95126	490.11160	690.16650	25.10942	499.23978	-57.53703	1269.09558	-1017.17670	
5263	52.620	-843.26495	-16.85290	-644.26068	726.23938	-16.00268	-649.84021	-751.29907	25.13688	490.24738	690.91602	25.13481	499.31790	-56.98507	1269.15942	-1017.17511	
5264	52.630	-842.64496	-16.75663	-644.22253	726.82745	-15.92799	-649.72845	-750.73987	25.01743	490.27499	691.47998	25.19677	499.42847	-56.66109	1269.24500	-1017.09424	
5265	52.640	-842.17615	-16.70094	-644.23279	727.45178	-15.74316	-649.57214	-750.05890	25.03366	490.37036	691.95483	24.89583	499.37808	-56.20820	1269.40466	-1017.00470	
5266	52.650	-841.73401	-16.39986	-644.14996	728.36401	-15.24921	-649.51996	-749.63452	25.05803	490.34891	692.44281	24.86785	499.39185	-55.75318	1269.66125	-1016.81750	
5267	52.660	-841.25427	-16.17118	-644.25140	728.84558	-15.29865	-649.48254	-749.10114	25.04144	490.34882	692.69104	24.69625	499.38568	-55.32140	1269.97961	-1016.61578	
5268	52.670	-840.85364	-16.38749	-644.25049	729.53967	-15.33395	-649.39886	-748.81128	24.94212	490.36191	693.45142	24.84018	499.50497	-54.64210	1269.95435	-1016.06561	
5269	52.680	-840.06189	-16.50742	-644.14398	730.10248	-15.26672	-649.45599	-748.19348	24.88599	490.40436	694.29156	24.89715	499.59741	-54.21661	1270.16211	-1015.60901	
5270	52.690	-839.23260	-16.29217	-644.32745	730.44061	-15.23445	-649.62134	-747.56329	24.89469	490.48938	694.61053	24.65003	499.49039	-53.13896	1270.14929	-1015.04834	
5271	52.700	-838.70825	-16.21673	-644.37970	730.97699	-15.09466	-649.70905	-746.88037	24.97181	490.44876	695.11475	24.53827	499.53024	-52.61737	1270.37976	-1014.77533	
5272	52.710	-838.27032	-15.89566	-644.31213	731.81073	-14.88404	-649.66876	-746.33929	24.85572	490.44855	695.80988	24.46820	499.45193	-52.27795	1270.59827	-1014.51257	
5273	52.720	-837.78326	-15.68976	-644.15869	732.61694	-14.79258	-649.50061	-745.87494	24.76855	490.42679	695.42755	23.60291	499.06598	-51.96756	1270.62915	-1014.35852	
5274	52.730	-836.89636	-15.61066	-644.05029	733.00360	-14.58298	-649.37677	-745.16956	24.51706	490.33862	696.75031	24.15492	499.87805	-51.44812	1270.72131	-1014.14612	
5275	52.740	-836.33356	-15.77178	-644.12189	733.55017	-14.54848	-649.26581	-744.49829	24.40531	490.41470	697.38751	24.16501	499.82898	-50.58928	1270.95642	-1014.09155	
5276	52.750	-835.40106	-15.62118	-644.18646	734.31219	-14.39687	-649.39563	-743.75116	24.37107	490.53827	698.09186	24.20385	500.04913	-49.22963	1271.08362	-1014.58966	
5277	52.760	-834.84485	-15.51159	-644.14771	735.03247	-14.07450	-649.45630	-743.19867	24.37642	490.59268	699.28516	24.22261	499.94321	-48.66483	1271.38721	-1014.45740	
5278	52.770	-834.12305	-15.05488	-644.18207	735.64148	-13.93963	-649.48090	-742.66418	24.37826	490.59869	699.85474	24.05654	499.97830	-48.27050	1271.64087	-1014.14795	
5279	52.780	-833.66254	-14.88603	-644.06488	736.42157	-13.77732	-649.35583	-741.86938	24.35456	490.70261	700.46857	23.91119	500.00900	-47.48668	1271.91370	-1013.79333	
5280	52.790	-833.11133	-14.76313	-644.09100	737.02411	-13.75059	-649.19061	-741.36969	24.20306	490.72699	701.05029	23.82757	500.09875	-46.60066	1272.14233	-1013.42792	
5281	52.800	-832.11163	-14.89930	-643.94702	737.75415	-13.66075	-649.25696	-740.73987	24.28338	490.83072	701.66272	23.73713	500.13248	-46.23206	1272.38538	-1013.22949	
5282	52.810	-831.44958	-14.68287	-643.82697	738.58954	-13.43505	-649.18475	-739.82703	24.21174	490.94580	702.47644	23.53983	500.13690	-45.23091	1272.96301	-1012.40845	
